<svg xmlns="http://www.w3.org/2000/svg" viewBox="0 0 1920 1080">
  <defs>
    <linearGradient id="sky" x1="0" y1="0" x2="0" y2="1">
      <stop offset="0%" stop-color="#06040e"/>
      <stop offset="40%" stop-color="#141450"/>
      <stop offset="70%" stop-color="#201870"/>
      <stop offset="100%" stop-color="#0a0618"/>
    </linearGradient>
  </defs>
  <rect width="1920" height="1080" fill="url(#sky)"/>
  <!-- city skyline -->
  <!-- buildings -->
  <rect x="80" y="600" width="60" height="480" fill="#0c0820"/>
  <rect x="160" y="500" width="50" height="580" fill="#0e0a24"/>
  <rect x="230" y="550" width="70" height="530" fill="#0c0820"/>
  <rect x="320" y="450" width="55" height="630" fill="#100c28"/>
  <rect x="400" y="520" width="65" height="560" fill="#0c0820"/>
  <rect x="490" y="400" width="80" height="680" fill="#0e0a24"/>
  <rect x="590" y="480" width="60" height="600" fill="#0c0820"/>
  <rect x="670" y="350" width="70" height="730" fill="#100c28"/>
  <rect x="760" y="420" width="55" height="660" fill="#0c0820"/>
  <rect x="840" y="300" width="90" height="780" fill="#0e0a24"/>
  <rect x="950" y="380" width="60" height="700" fill="#0c0820"/>
  <rect x="1030" y="320" width="80" height="760" fill="#100c28"/>
  <rect x="1130" y="400" width="55" height="680" fill="#0c0820"/>
  <rect x="1200" y="350" width="70" height="730" fill="#0e0a24"/>
  <rect x="1290" y="450" width="60" height="630" fill="#0c0820"/>
  <rect x="1370" y="380" width="75" height="700" fill="#100c28"/>
  <rect x="1465" y="500" width="55" height="580" fill="#0c0820"/>
  <rect x="1540" y="430" width="65" height="650" fill="#0e0a24"/>
  <rect x="1625" y="520" width="60" height="560" fill="#0c0820"/>
  <rect x="1700" y="480" width="70" height="600" fill="#100c28"/>
  <rect x="1790" y="550" width="55" height="530" fill="#0c0820"/>
  <rect x="1860" y="500" width="60" height="580" fill="#0e0a24"/>
  <!-- building windows (lit) -->
  <rect x="96" y="620" width="8" height="6" fill="rgba(255,200,80,.3)"/>
  <rect x="116" y="650" width="8" height="6" fill="rgba(255,200,80,.2)"/>
  <rect x="340" y="470" width="8" height="6" fill="rgba(255,200,80,.25)"/>
  <rect x="340" y="500" width="8" height="6" fill="rgba(255,200,80,.2)"/>
  <rect x="510" y="430" width="8" height="6" fill="rgba(255,200,80,.3)"/>
  <rect x="530" y="460" width="8" height="6" fill="rgba(255,200,80,.2)"/>
  <rect x="690" y="380" width="8" height="6" fill="rgba(255,200,80,.25)"/>
  <rect x="710" y="410" width="8" height="6" fill="rgba(255,200,80,.2)"/>
  <rect x="860" y="330" width="8" height="6" fill="rgba(255,200,80,.3)"/>
  <rect x="900" y="350" width="8" height="6" fill="rgba(255,200,80,.25)"/>
  <rect x="1050" y="350" width="8" height="6" fill="rgba(255,200,80,.3)"/>
  <rect x="1080" y="380" width="8" height="6" fill="rgba(255,200,80,.2)"/>
  <rect x="1220" y="380" width="8" height="6" fill="rgba(255,200,80,.25)"/>
  <rect x="1390" y="410" width="8" height="6" fill="rgba(255,200,80,.3)"/>
  <rect x="1560" y="460" width="8" height="6" fill="rgba(255,200,80,.2)"/>
  <rect x="1720" y="510" width="8" height="6" fill="rgba(255,200,80,.25)"/>
  <!-- city glow reflection on sky -->
  <ellipse cx="960" cy="950" rx="800" ry="100" fill="rgba(180,120,255,.06)"/>
  <ellipse cx="400" cy="980" rx="300" ry="60" fill="rgba(255,200,80,.04)"/>
  <ellipse cx="1500" cy="970" rx="280" ry="50" fill="rgba(255,160,50,.04)"/>
  <!-- stars above city -->
  <circle cx="300" cy="80" r="1" fill="rgba(255,255,255,.3)"/>
  <circle cx="700" cy="120" r=".8" fill="rgba(255,255,255,.2)"/>
  <circle cx="960" cy="60" r="1.2" fill="rgba(255,255,255,.3)"/>
  <circle cx="1400" cy="100" r="1" fill="rgba(255,255,255,.25)"/>
  <circle cx="1700" cy="70" r=".8" fill="rgba(255,255,255,.2)"/>
</svg>