<svg xmlns="http://www.w3.org/2000/svg" viewBox="0 0 1920 1080">
  <defs>
    <linearGradient id="bg" x1="0" y1="0" x2="0" y2="1">
      <stop offset="0%" stop-color="#0a0012"/>
      <stop offset="50%" stop-color="#1a0030"/>
      <stop offset="100%" stop-color="#0a0018"/>
    </linearGradient>
    <radialGradient id="g1" cx="30%" cy="40%" r="45%">
      <stop offset="0%" stop-color="rgba(140,0,255,.25)"/>
      <stop offset="100%" stop-color="transparent"/>
    </radialGradient>
    <radialGradient id="g2" cx="70%" cy="60%" r="40%">
      <stop offset="0%" stop-color="rgba(0,100,255,.20)"/>
      <stop offset="100%" stop-color="transparent"/>
    </radialGradient>
    <radialGradient id="g3" cx="50%" cy="30%" r="35%">
      <stop offset="0%" stop-color="rgba(255,0,180,.12)"/>
      <stop offset="100%" stop-color="transparent"/>
    </radialGradient>
  </defs>
  <rect width="1920" height="1080" fill="url(#bg)"/>
  <rect width="1920" height="1080" fill="url(#g1)"/>
  <rect width="1920" height="1080" fill="url(#g2)"/>
  <rect width="1920" height="1080" fill="url(#g3)"/>
  <circle cx="200" cy="150" r="1.5" fill="rgba(255,255,255,.7)"/>
  <circle cx="500" cy="80" r="1" fill="rgba(255,255,255,.5)"/>
  <circle cx="820" cy="200" r="2" fill="rgba(255,255,255,.8)"/>
  <circle cx="1100" cy="100" r="1.2" fill="rgba(255,255,255,.6)"/>
  <circle cx="1400" cy="180" r="1.8" fill="rgba(255,255,255,.7)"/>
  <circle cx="1680" cy="120" r="1" fill="rgba(255,255,255,.5)"/>
  <circle cx="300" cy="400" r="1.3" fill="rgba(255,255,255,.4)"/>
  <circle cx="700" cy="500" r="1.5" fill="rgba(255,255,255,.5)"/>
  <circle cx="1200" cy="350" r="2" fill="rgba(255,255,255,.6)"/>
  <circle cx="1600" cy="450" r="1" fill="rgba(255,255,255,.4)"/>
  <circle cx="960" cy="540" r="3" fill="rgba(255,255,255,.9)"/>
  <circle cx="400" cy="700" r="1.2" fill="rgba(255,255,255,.3)"/>
  <circle cx="1500" cy="650" r="1.5" fill="rgba(255,255,255,.4)"/>
</svg>