<svg xmlns="http://www.w3.org/2000/svg" viewBox="0 0 1920 1080">
  <defs>
    <linearGradient id="bg" x1="0" y1="0" x2="0" y2="1">
      <stop offset="0%" stop-color="#001830"/>
      <stop offset="40%" stop-color="#002848"/>
      <stop offset="100%" stop-color="#001020"/>
    </linearGradient>
  </defs>
  <rect width="1920" height="1080" fill="url(#bg)"/>
  <path d="M0 400 Q200 350 400 380 T800 360 T1200 380 T1600 350 T1920 370 V1080 H0Z" fill="#002040" opacity=".6"/>
  <path d="M0 500 Q250 460 500 490 T1000 470 T1500 490 T1920 460 V1080 H0Z" fill="#001838" opacity=".5"/>
  <path d="M0 600 Q300 570 600 590 T1200 580 T1920 570 V1080 H0Z" fill="#001030" opacity=".4"/>
  <ellipse cx="400" cy="300" rx="120" ry="60" fill="rgba(0,100,200,.06)"/>
  <ellipse cx="1200" cy="250" rx="150" ry="70" fill="rgba(0,80,180,.05)"/>
  <circle cx="300" cy="700" r="2" fill="rgba(0,200,255,.3)"/>
  <circle cx="700" cy="800" r="3" fill="rgba(0,180,240,.2)"/>
  <circle cx="1100" cy="750" r="2.5" fill="rgba(0,200,255,.25)"/>
  <circle cx="1500" cy="850" r="2" fill="rgba(0,160,220,.2)"/>
  <circle cx="960" cy="950" r="4" fill="rgba(0,200,255,.15)"/>
</svg>