<svg xmlns="http://www.w3.org/2000/svg" viewBox="0 0 1920 1080">
  <defs>
    <linearGradient id="bg" x1="0" y1="0" x2="0" y2="1">
      <stop offset="0%" stop-color="#c8b8d8"/>
      <stop offset="40%" stop-color="#b8a0d0"/>
      <stop offset="100%" stop-color="#9878b8"/>
    </linearGradient>
  </defs>
  <rect width="1920" height="1080" fill="url(#bg)"/>
  <!-- distant hills -->
  <ellipse cx="960" cy="850" rx="1200" ry="250" fill="#a088c0"/>
  <ellipse cx="400" cy="880" rx="600" ry="200" fill="#9880b8"/>
  <ellipse cx="1500" cy="870" rx="700" ry="220" fill="#9478b0"/>
  <!-- flower rows -->
  <rect x="0" y="700" width="1920" height="380" fill="#7860a0"/>
  <!-- lavender stalks - row 1 -->
  <line x1="60" y1="700" x2="60" y2="620" stroke="#6a5090" stroke-width="2"/>
  <ellipse cx="60" cy="610" rx="3" ry="12" fill="#9b59b6"/>
  <line x1="120" y1="700" x2="120" y2="615" stroke="#6a5090" stroke-width="2"/>
  <ellipse cx="120" cy="605" rx="3" ry="12" fill="#a96cc8"/>
  <line x1="180" y1="700" x2="180" y2="625" stroke="#6a5090" stroke-width="2"/>
  <ellipse cx="180" cy="615" rx="3" ry="12" fill="#8e44ad"/>
  <line x1="240" y1="700" x2="240" y2="618" stroke="#6a5090" stroke-width="2"/>
  <ellipse cx="240" cy="608" rx="3" ry="12" fill="#9b59b6"/>
  <line x1="300" y1="700" x2="300" y2="622" stroke="#6a5090" stroke-width="2"/>
  <ellipse cx="300" cy="612" rx="3" ry="12" fill="#a96cc8"/>
  <line x1="360" y1="700" x2="360" y2="610" stroke="#6a5090" stroke-width="2"/>
  <ellipse cx="360" cy="600" rx="3" ry="12" fill="#8e44ad"/>
  <line x1="420" y1="700" x2="420" y2="620" stroke="#6a5090" stroke-width="2"/>
  <ellipse cx="420" cy="610" rx="3" ry="12" fill="#9b59b6"/>
  <line x1="480" y1="700" x2="480" y2="615" stroke="#6a5090" stroke-width="2"/>
  <ellipse cx="480" cy="605" rx="3" ry="12" fill="#a96cc8"/>
  <line x1="540" y1="700" x2="540" y2="625" stroke="#6a5090" stroke-width="2"/>
  <ellipse cx="540" cy="615" rx="3" ry="12" fill="#8e44ad"/>
  <line x1="600" y1="700" x2="600" y2="618" stroke="#6a5090" stroke-width="2"/>
  <ellipse cx="600" cy="608" rx="3" ry="12" fill="#9b59b6"/>
  <line x1="660" y1="700" x2="660" y2="612" stroke="#6a5090" stroke-width="2"/>
  <ellipse cx="660" cy="602" rx="3" ry="12" fill="#a96cc8"/>
  <line x1="720" y1="700" x2="720" y2="622" stroke="#6a5090" stroke-width="2"/>
  <ellipse cx="720" cy="612" rx="3" ry="12" fill="#8e44ad"/>
  <line x1="780" y1="700" x2="780" y2="616" stroke="#6a5090" stroke-width="2"/>
  <ellipse cx="780" cy="606" rx="3" ry="12" fill="#9b59b6"/>
  <line x1="840" y1="700" x2="840" y2="620" stroke="#6a5090" stroke-width="2"/>
  <ellipse cx="840" cy="610" rx="3" ry="12" fill="#a96cc8"/>
  <line x1="900" y1="700" x2="900" y2="610" stroke="#6a5090" stroke-width="2"/>
  <ellipse cx="900" cy="600" rx="3" ry="12" fill="#8e44ad"/>
  <line x1="960" y1="700" x2="960" y2="618" stroke="#6a5090" stroke-width="2"/>
  <ellipse cx="960" cy="608" rx="3" ry="12" fill="#9b59b6"/>
  <line x1="1020" y1="700" x2="1020" y2="615" stroke="#6a5090" stroke-width="2"/>
  <ellipse cx="1020" cy="605" rx="3" ry="12" fill="#a96cc8"/>
  <line x1="1080" y1="700" x2="1080" y2="622" stroke="#6a5090" stroke-width="2"/>
  <ellipse cx="1080" cy="612" rx="3" ry="12" fill="#8e44ad"/>
  <line x1="1140" y1="700" x2="1140" y2="616" stroke="#6a5090" stroke-width="2"/>
  <ellipse cx="1140" cy="606" rx="3" ry="12" fill="#9b59b6"/>
  <line x1="1200" y1="700" x2="1200" y2="620" stroke="#6a5090" stroke-width="2"/>
  <ellipse cx="1200" cy="610" rx="3" ry="12" fill="#a96cc8"/>
  <line x1="1260" y1="700" x2="1260" y2="612" stroke="#6a5090" stroke-width="2"/>
  <ellipse cx="1260" cy="602" rx="3" ry="12" fill="#8e44ad"/>
  <line x1="1320" y1="700" x2="1320" y2="618" stroke="#6a5090" stroke-width="2"/>
  <ellipse cx="1320" cy="608" rx="3" ry="12" fill="#9b59b6"/>
  <line x1="1380" y1="700" x2="1380" y2="624" stroke="#6a5090" stroke-width="2"/>
  <ellipse cx="1380" cy="614" rx="3" ry="12" fill="#a96cc8"/>
  <line x1="1440" y1="700" x2="1440" y2="610" stroke="#6a5090" stroke-width="2"/>
  <ellipse cx="1440" cy="600" rx="3" ry="12" fill="#8e44ad"/>
  <line x1="1500" y1="700" x2="1500" y2="620" stroke="#6a5090" stroke-width="2"/>
  <ellipse cx="1500" cy="610" rx="3" ry="12" fill="#9b59b6"/>
  <line x1="1560" y1="700" x2="1560" y2="615" stroke="#6a5090" stroke-width="2"/>
  <ellipse cx="1560" cy="605" rx="3" ry="12" fill="#a96cc8"/>
  <line x1="1620" y1="700" x2="1620" y2="622" stroke="#6a5090" stroke-width="2"/>
  <ellipse cx="1620" cy="612" rx="3" ry="12" fill="#8e44ad"/>
  <line x1="1680" y1="700" x2="1680" y2="618" stroke="#6a5090" stroke-width="2"/>
  <ellipse cx="1680" cy="608" rx="3" ry="12" fill="#9b59b6"/>
  <line x1="1740" y1="700" x2="1740" y2="612" stroke="#6a5090" stroke-width="2"/>
  <ellipse cx="1740" cy="602" rx="3" ry="12" fill="#a96cc8"/>
  <line x1="1800" y1="700" x2="1800" y2="620" stroke="#6a5090" stroke-width="2"/>
  <ellipse cx="1800" cy="610" rx="3" ry="12" fill="#8e44ad"/>
  <line x1="1860" y1="700" x2="1860" y2="616" stroke="#6a5090" stroke-width="2"/>
  <ellipse cx="1860" cy="606" rx="3" ry="12" fill="#9b59b6"/>
</svg>