<svg xmlns="http://www.w3.org/2000/svg" viewBox="0 0 1920 1080">
  <defs>
    <linearGradient id="bg" x1="0" y1="0" x2="0" y2="1">
      <stop offset="0%" stop-color="#000000"/>
      <stop offset="100%" stop-color="#0a0a0a"/>
    </linearGradient>
    <radialGradient id="g1" cx="25%" cy="40%" r="30%">
      <stop offset="0%" stop-color="rgba(0,255,128,.15)"/>
      <stop offset="100%" stop-color="transparent"/>
    </radialGradient>
    <radialGradient id="g2" cx="75%" cy="60%" r="25%">
      <stop offset="0%" stop-color="rgba(0,255,128,.10)"/>
      <stop offset="100%" stop-color="transparent"/>
    </radialGradient>
  </defs>
  <rect width="1920" height="1080" fill="url(#bg)"/>
  <rect width="1920" height="1080" fill="url(#g1)"/>
  <rect width="1920" height="1080" fill="url(#g2)"/>
  <path d="M100 200 L120 800" stroke="rgba(0,255,128,.05)" stroke-width=".5"/>
  <path d="M250 0 L270 1080" stroke="rgba(0,255,128,.04)" stroke-width=".5"/>
  <path d="M500 0 L520 1080" stroke="rgba(0,255,128,.06)" stroke-width=".5"/>
  <path d="M750 0 L770 1080" stroke="rgba(0,255,128,.04)" stroke-width=".5"/>
  <path d="M960 0 L960 1080" stroke="rgba(0,255,128,.08)" stroke-width=".5"/>
  <path d="M1200 0 L1180 1080" stroke="rgba(0,255,128,.05)" stroke-width=".5"/>
  <path d="M1450 0 L1430 1080" stroke="rgba(0,255,128,.04)" stroke-width=".5"/>
  <path d="M1700 0 L1680 1080" stroke="rgba(0,255,128,.06)" stroke-width=".5"/>
  <path d="M0 200 L1920 200" stroke="rgba(0,255,128,.04)" stroke-width=".5"/>
  <path d="M0 400 L1920 400" stroke="rgba(0,255,128,.05)" stroke-width=".5"/>
  <path d="M0 540 L1920 540" stroke="rgba(0,255,128,.07)" stroke-width=".5"/>
  <path d="M0 700 L1920 700" stroke="rgba(0,255,128,.04)" stroke-width=".5"/>
  <path d="M0 900 L1920 900" stroke="rgba(0,255,128,.05)" stroke-width=".5"/>
  <text x="960" y="540" text-anchor="middle" font-family="monospace" font-size="10" fill="rgba(0,255,128,.12)">01001000 01100101 01101100 01101100 01101111</text>
</svg>