<svg xmlns="http://www.w3.org/2000/svg" viewBox="0 0 1920 1080">
  <defs>
    <linearGradient id="bg" x1="0" y1="0" x2="0" y2="1">
      <stop offset="0%" stop-color="#08040e"/>
      <stop offset="50%" stop-color="#0c0618"/>
      <stop offset="100%" stop-color="#04020a"/>
    </linearGradient>
    <radialGradient id="neb1" cx="35%" cy="40%" r="30%">
      <stop offset="0%" stop-color="rgba(160,50,240,.25)"/>
      <stop offset="100%" stop-color="transparent"/>
    </radialGradient>
    <radialGradient id="neb2" cx="65%" cy="50%" r="25%">
      <stop offset="0%" stop-color="rgba(20,100,255,.2)"/>
      <stop offset="100%" stop-color="transparent"/>
    </radialGradient>
    <radialGradient id="neb3" cx="50%" cy="35%" r="20%">
      <stop offset="0%" stop-color="rgba(220,80,255,.12)"/>
      <stop offset="100%" stop-color="transparent"/>
    </radialGradient>
  </defs>
  <rect width="1920" height="1080" fill="url(#bg)"/>
  <rect width="1920" height="1080" fill="url(#neb1)"/>
  <rect width="1920" height="1080" fill="url(#neb2)"/>
  <rect width="1920" height="1080" fill="url(#neb3)"/>
  <!-- dust clouds -->
  <ellipse cx="672" cy="430" rx="300" ry="150" fill="rgba(160,60,220,.06)"/>
  <ellipse cx="1248" cy="540" rx="250" ry="120" fill="rgba(40,80,220,.05)"/>
  <ellipse cx="960" cy="350" rx="200" ry="100" fill="rgba(200,100,255,.04)"/>
  <!-- stars - lots of them -->
  <circle cx="120" cy="80" r="2" fill="rgba(255,255,255,.7)"/>
  <circle cx="300" cy="200" r="1" fill="rgba(255,255,255,.4)"/>
  <circle cx="450" cy="50" r="1.5" fill="rgba(255,255,255,.5)"/>
  <circle cx="600" cy="300" r=".8" fill="rgba(255,255,255,.3)"/>
  <circle cx="200" cy="400" r="1.2" fill="rgba(255,255,255,.45)"/>
  <circle cx="800" cy="150" r="1.8" fill="rgba(255,255,255,.6)"/>
  <circle cx="960" cy="400" r="2.5" fill="rgba(255,255,255,.7)"/>
  <circle cx="1100" cy="100" r="1" fill="rgba(255,255,255,.4)"/>
  <circle cx="1300" cy="300" r="1.5" fill="rgba(255,255,255,.5)"/>
  <circle cx="1500" cy="50" r="1.2" fill="rgba(255,255,255,.45)"/>
  <circle cx="1650" cy="250" r=".8" fill="rgba(255,255,255,.35)"/>
  <circle cx="1800" cy="100" r="1.5" fill="rgba(255,255,255,.5)"/>
  <circle cx="100" cy="600" r="1" fill="rgba(255,255,255,.3)"/>
  <circle cx="350" cy="700" r="1.3" fill="rgba(255,255,255,.4)"/>
  <circle cx="550" cy="550" r=".8" fill="rgba(255,255,255,.25)"/>
  <circle cx="750" cy="800" r="1.5" fill="rgba(255,255,255,.5)"/>
  <circle cx="1000" cy="650" r="1" fill="rgba(255,255,255,.35)"/>
  <circle cx="1200" cy="750" r="1.8" fill="rgba(255,255,255,.55)"/>
  <circle cx="1400" cy="600" r=".8" fill="rgba(255,255,255,.3)"/>
  <circle cx="1600" cy="800" r="1.2" fill="rgba(255,255,255,.4)"/>
  <circle cx="1750" cy="500" r="1" fill="rgba(255,255,255,.35)"/>
  <circle cx="400" cy="900" r="1.5" fill="rgba(255,255,255,.4)"/>
  <circle cx="900" cy="900" r="1" fill="rgba(255,255,255,.3)"/>
  <circle cx="1500" cy="950" r="1.3" fill="rgba(255,255,255,.4)"/>
  <circle cx="50" cy="300" r=".6" fill="rgba(200,180,255,.3)"/>
  <circle cx="1900" cy="400" r=".7" fill="rgba(200,180,255,.25)"/>
</svg>