<svg xmlns="http://www.w3.org/2000/svg" viewBox="0 0 1920 1080">
  <defs>
    <linearGradient id="bg" x1="0" y1="0" x2="0" y2="1">
      <stop offset="0%" stop-color="#1a1a2e"/>
      <stop offset="100%" stop-color="#16213e"/>
    </linearGradient>
  </defs>
  <rect width="1920" height="1080" fill="url(#bg)"/>
  <!-- rain drops -->
  <line x1="100" y1="0" x2="95" y2="80" stroke="rgba(150,180,220,.12)" stroke-width="1.5"/>
  <line x1="200" y1="50" x2="195" y2="130" stroke="rgba(150,180,220,.10)" stroke-width="1"/>
  <line x1="320" y1="20" x2="315" y2="100" stroke="rgba(150,180,220,.11)" stroke-width="1.2"/>
  <line x1="450" y1="80" x2="445" y2="160" stroke="rgba(150,180,220,.09)" stroke-width="1"/>
  <line x1="580" y1="10" x2="575" y2="90" stroke="rgba(150,180,220,.12)" stroke-width="1.5"/>
  <line x1="700" y1="60" x2="695" y2="140" stroke="rgba(150,180,220,.10)" stroke-width="1"/>
  <line x1="830" y1="30" x2="825" y2="110" stroke="rgba(150,180,220,.11)" stroke-width="1.2"/>
  <line x1="960" y1="0" x2="955" y2="80" stroke="rgba(150,180,220,.12)" stroke-width="1.5"/>
  <line x1="1100" y1="70" x2="1095" y2="150" stroke="rgba(150,180,220,.09)" stroke-width="1"/>
  <line x1="1230" y1="15" x2="1225" y2="95" stroke="rgba(150,180,220,.11)" stroke-width="1.2"/>
  <line x1="1350" y1="50" x2="1345" y2="130" stroke="rgba(150,180,220,.10)" stroke-width="1"/>
  <line x1="1480" y1="0" x2="1475" y2="80" stroke="rgba(150,180,220,.12)" stroke-width="1.5"/>
  <line x1="1610" y1="40" x2="1605" y2="120" stroke="rgba(150,180,220,.10)" stroke-width="1"/>
  <line x1="1750" y1="20" x2="1745" y2="100" stroke="rgba(150,180,220,.11)" stroke-width="1.2"/>
  <line x1="1870" y1="60" x2="1865" y2="140" stroke="rgba(150,180,220,.09)" stroke-width="1"/>
  <!-- second wave -->
  <line x1="150" y1="200" x2="145" y2="280" stroke="rgba(150,180,220,.10)" stroke-width="1"/>
  <line x1="380" y1="180" x2="375" y2="260" stroke="rgba(150,180,220,.12)" stroke-width="1.5"/>
  <line x1="520" y1="220" x2="515" y2="300" stroke="rgba(150,180,220,.09)" stroke-width="1"/>
  <line x1="660" y1="190" x2="655" y2="270" stroke="rgba(150,180,220,.11)" stroke-width="1.2"/>
  <line x1="900" y1="210" x2="895" y2="290" stroke="rgba(150,180,220,.10)" stroke-width="1"/>
  <line x1="1050" y1="180" x2="1045" y2="260" stroke="rgba(150,180,220,.12)" stroke-width="1.5"/>
  <line x1="1300" y1="200" x2="1295" y2="280" stroke="rgba(150,180,220,.09)" stroke-width="1"/>
  <line x1="1550" y1="190" x2="1545" y2="270" stroke="rgba(150,180,220,.11)" stroke-width="1.2"/>
  <line x1="1700" y1="220" x2="1695" y2="300" stroke="rgba(150,180,220,.10)" stroke-width="1"/>
  <!-- third wave -->
  <line x1="80" y1="400" x2="75" y2="480" stroke="rgba(150,180,220,.11)" stroke-width="1.2"/>
  <line x1="250" y1="380" x2="245" y2="460" stroke="rgba(150,180,220,.10)" stroke-width="1"/>
  <line x1="430" y1="420" x2="425" y2="500" stroke="rgba(150,180,220,.12)" stroke-width="1.5"/>
  <line x1="610" y1="390" x2="605" y2="470" stroke="rgba(150,180,220,.09)" stroke-width="1"/>
  <line x1="790" y1="410" x2="785" y2="490" stroke="rgba(150,180,220,.11)" stroke-width="1.2"/>
  <line x1="1000" y1="380" x2="995" y2="460" stroke="rgba(150,180,220,.10)" stroke-width="1"/>
  <line x1="1180" y1="400" x2="1175" y2="480" stroke="rgba(150,180,220,.12)" stroke-width="1.5"/>
  <line x1="1400" y1="420" x2="1395" y2="500" stroke="rgba(150,180,220,.09)" stroke-width="1"/>
  <line x1="1600" y1="390" x2="1595" y2="470" stroke="rgba(150,180,220,.11)" stroke-width="1.2"/>
  <line x1="1820" y1="410" x2="1815" y2="490" stroke="rgba(150,180,220,.10)" stroke-width="1"/>
  <!-- fourth wave -->
  <line x1="130" y1="580" x2="125" y2="660" stroke="rgba(150,180,220,.10)" stroke-width="1"/>
  <line x1="340" y1="560" x2="335" y2="640" stroke="rgba(150,180,220,.11)" stroke-width="1.2"/>
  <line x1="550" y1="600" x2="545" y2="680" stroke="rgba(150,180,220,.09)" stroke-width="1"/>
  <line x1="740" y1="570" x2="735" y2="650" stroke="rgba(150,180,220,.12)" stroke-width="1.5"/>
  <line x1="950" y1="590" x2="945" y2="670" stroke="rgba(150,180,220,.10)" stroke-width="1"/>
  <line x1="1150" y1="560" x2="1145" y2="640" stroke="rgba(150,180,220,.11)" stroke-width="1.2"/>
  <line x1="1350" y1="580" x2="1345" y2="660" stroke="rgba(150,180,220,.12)" stroke-width="1.5"/>
  <line x1="1550" y1="600" x2="1545" y2="680" stroke="rgba(150,180,220,.09)" stroke-width="1"/>
  <line x1="1750" y1="570" x2="1745" y2="650" stroke="rgba(150,180,220,.10)" stroke-width="1"/>
  <!-- window glass effect -->
  <rect x="0" y="0" width="1920" height="1080" fill="rgba(100,140,180,.03)"/>
  <!-- water droplets on glass -->
  <circle cx="300" cy="300" r="8" fill="none" stroke="rgba(180,210,240,.08)" stroke-width="1.5"/>
  <circle cx="700" cy="500" r="6" fill="none" stroke="rgba(180,210,240,.07)" stroke-width="1"/>
  <circle cx="1200" cy="200" r="7" fill="none" stroke="rgba(180,210,240,.08)" stroke-width="1.2"/>
  <circle cx="1500" cy="600" r="5" fill="none" stroke="rgba(180,210,240,.06)" stroke-width="1"/>
  <circle cx="500" cy="800" r="9" fill="none" stroke="rgba(180,210,240,.07)" stroke-width="1.5"/>
  <circle cx="1000" cy="700" r="6" fill="none" stroke="rgba(180,210,240,.08)" stroke-width="1"/>
  <circle cx="1700" cy="400" r="7" fill="none" stroke="rgba(180,210,240,.07)" stroke-width="1.2"/>
  <circle cx="200" cy="900" r="5" fill="none" stroke="rgba(180,210,240,.06)" stroke-width="1"/>
</svg>